<svg width="32" height="24" viewBox="0 0 32 24" fill="none" xmlns="http://www.w3.org/2000/svg">
<path d="M21.4737 5.05261H3.78947C2.78444 5.05261 1.82058 5.45186 1.10991 6.16252C0.399247 6.87319 0 7.83706 0 8.84209V20.2105C0 21.2155 0.399247 22.1794 1.10991 22.8901C1.82058 23.6007 2.78444 24 3.78947 24H21.4737C22.4787 24 23.4426 23.6007 24.1532 22.8901C24.8639 22.1794 25.2632 21.2155 25.2632 20.2105V8.84209C25.2632 7.83706 24.8639 6.87319 24.1532 6.16252C23.4426 5.45186 22.4787 5.05261 21.4737 5.05261Z" fill="#6552FE"/>
<rect x="2.52637" y="7.57898" width="20.2105" height="13.8947" rx="1" fill="#C4EADC"/>
<rect x="7.57812" y="1.26318" width="22.7368" height="15.1579" fill="#C4EBDB"/>
<path d="M12.6312 12.6316H16.4207C16.7557 12.6316 17.077 12.4985 17.3139 12.2616C17.5508 12.0247 17.6839 11.7034 17.6839 11.3684C17.6839 11.0334 17.5508 10.7121 17.3139 10.4752C17.077 10.2383 16.7557 10.1053 16.4207 10.1053H12.6312C12.2962 10.1053 11.9749 10.2383 11.738 10.4752C11.5011 10.7121 11.3681 11.0334 11.3681 11.3684C11.3681 11.7034 11.5011 12.0247 11.738 12.2616C11.9749 12.4985 12.2962 12.6316 12.6312 12.6316ZM27.7891 0H10.1049C9.09987 0 8.13601 0.399247 7.42534 1.10991C6.71468 1.82058 6.31543 2.78444 6.31543 3.78947V15.1579C6.31543 16.1629 6.71468 17.1268 7.42534 17.8375C8.13601 18.5481 9.09987 18.9474 10.1049 18.9474H27.7891C28.7941 18.9474 29.758 18.5481 30.4687 17.8375C31.1793 17.1268 31.5786 16.1629 31.5786 15.1579V3.78947C31.5786 2.78444 31.1793 1.82058 30.4687 1.10991C29.758 0.399247 28.7941 0 27.7891 0ZM29.0523 15.1579C29.0523 15.4929 28.9192 15.8142 28.6823 16.0511C28.4454 16.288 28.1241 16.4211 27.7891 16.4211H10.1049C9.76989 16.4211 9.4486 16.288 9.21172 16.0511C8.97483 15.8142 8.84175 15.4929 8.84175 15.1579V7.57895H29.0523V15.1579ZM29.0523 5.05263H8.84175V3.78947C8.84175 3.45446 8.97483 3.13317 9.21172 2.89629C9.4486 2.6594 9.76989 2.52632 10.1049 2.52632H27.7891C28.1241 2.52632 28.4454 2.6594 28.6823 2.89629C28.9192 3.13317 29.0523 3.45446 29.0523 3.78947V5.05263Z" fill="#6552FE"/>
</svg>
