<svg width="28" height="28" viewBox="0 0 28 28" fill="none" xmlns="http://www.w3.org/2000/svg">
<path d="M13.9997 16.3333C14.2304 16.3333 14.456 16.2649 14.6478 16.1367C14.8397 16.0085 14.9892 15.8263 15.0775 15.6131C15.1658 15.3999 15.1889 15.1654 15.1439 14.939C15.0989 14.7127 14.9878 14.5048 14.8246 14.3417C14.6615 14.1785 14.4536 14.0674 14.2273 14.0224C14.001 13.9774 13.7664 14.0005 13.5532 14.0888C13.34 14.1771 13.1578 14.3266 13.0296 14.5185C12.9014 14.7103 12.833 14.9359 12.833 15.1666C12.833 15.4761 12.9559 15.7728 13.1747 15.9916C13.3935 16.2104 13.6903 16.3333 13.9997 16.3333ZM19.833 16.3333C20.0638 16.3333 20.2893 16.2649 20.4812 16.1367C20.673 16.0085 20.8226 15.8263 20.9109 15.6131C20.9992 15.3999 21.0223 15.1654 20.9773 14.939C20.9322 14.7127 20.8211 14.5048 20.658 14.3417C20.4948 14.1785 20.2869 14.0674 20.0606 14.0224C19.8343 13.9774 19.5997 14.0005 19.3865 14.0888C19.1734 14.1771 18.9912 14.3266 18.863 14.5185C18.7348 14.7103 18.6663 14.9359 18.6663 15.1666C18.6663 15.4761 18.7893 15.7728 19.008 15.9916C19.2268 16.2104 19.5236 16.3333 19.833 16.3333ZM13.9997 21C14.2304 21 14.456 20.9316 14.6478 20.8034C14.8397 20.6752 14.9892 20.493 15.0775 20.2798C15.1658 20.0666 15.1889 19.832 15.1439 19.6057C15.0989 19.3794 14.9878 19.1715 14.8246 19.0084C14.6615 18.8452 14.4536 18.7341 14.2273 18.6891C14.001 18.644 13.7664 18.6672 13.5532 18.7555C13.34 18.8438 13.1578 18.9933 13.0296 19.1851C12.9014 19.377 12.833 19.6026 12.833 19.8333C12.833 20.1427 12.9559 20.4395 13.1747 20.6583C13.3935 20.8771 13.6903 21 13.9997 21ZM19.833 21C20.0638 21 20.2893 20.9316 20.4812 20.8034C20.673 20.6752 20.8226 20.493 20.9109 20.2798C20.9992 20.0666 21.0223 19.832 20.9773 19.6057C20.9322 19.3794 20.8211 19.1715 20.658 19.0084C20.4948 18.8452 20.2869 18.7341 20.0606 18.6891C19.8343 18.644 19.5997 18.6672 19.3865 18.7555C19.1734 18.8438 18.9912 18.9933 18.863 19.1851C18.7348 19.377 18.6663 19.6026 18.6663 19.8333C18.6663 20.1427 18.7893 20.4395 19.008 20.6583C19.2268 20.8771 19.5236 21 19.833 21ZM8.16634 16.3333C8.39709 16.3333 8.62265 16.2649 8.81451 16.1367C9.00636 16.0085 9.1559 15.8263 9.2442 15.6131C9.3325 15.3999 9.35561 15.1654 9.31059 14.939C9.26557 14.7127 9.15446 14.5048 8.9913 14.3417C8.82814 14.1785 8.62026 14.0674 8.39395 14.0224C8.16763 13.9774 7.93306 14.0005 7.71988 14.0888C7.5067 14.1771 7.32449 14.3266 7.19629 14.5185C7.0681 14.7103 6.99967 14.9359 6.99967 15.1666C6.99967 15.4761 7.12259 15.7728 7.34138 15.9916C7.56018 16.2104 7.85692 16.3333 8.16634 16.3333ZM22.1663 4.66665H20.9997V3.49998C20.9997 3.19056 20.8768 2.89381 20.658 2.67502C20.4392 2.45623 20.1424 2.33331 19.833 2.33331C19.5236 2.33331 19.2268 2.45623 19.008 2.67502C18.7893 2.89381 18.6663 3.19056 18.6663 3.49998V4.66665H9.33301V3.49998C9.33301 3.19056 9.21009 2.89381 8.9913 2.67502C8.77251 2.45623 8.47576 2.33331 8.16634 2.33331C7.85692 2.33331 7.56018 2.45623 7.34138 2.67502C7.12259 2.89381 6.99967 3.19056 6.99967 3.49998V4.66665H5.83301C4.90475 4.66665 4.01451 5.0354 3.35813 5.69177C2.70176 6.34815 2.33301 7.23839 2.33301 8.16665V22.1666C2.33301 23.0949 2.70176 23.9851 3.35813 24.6415C4.01451 25.2979 4.90475 25.6666 5.83301 25.6666H22.1663C23.0946 25.6666 23.9848 25.2979 24.6412 24.6415C25.2976 23.9851 25.6663 23.0949 25.6663 22.1666V8.16665C25.6663 7.23839 25.2976 6.34815 24.6412 5.69177C23.9848 5.0354 23.0946 4.66665 22.1663 4.66665ZM23.333 22.1666C23.333 22.4761 23.2101 22.7728 22.9913 22.9916C22.7725 23.2104 22.4758 23.3333 22.1663 23.3333H5.83301C5.52359 23.3333 5.22684 23.2104 5.00805 22.9916C4.78926 22.7728 4.66634 22.4761 4.66634 22.1666V11.6666H23.333V22.1666ZM23.333 9.33331H4.66634V8.16665C4.66634 7.85723 4.78926 7.56048 5.00805 7.34169C5.22684 7.1229 5.52359 6.99998 5.83301 6.99998H22.1663C22.4758 6.99998 22.7725 7.1229 22.9913 7.34169C23.2101 7.56048 23.333 7.85723 23.333 8.16665V9.33331ZM8.16634 21C8.39709 21 8.62265 20.9316 8.81451 20.8034C9.00636 20.6752 9.1559 20.493 9.2442 20.2798C9.3325 20.0666 9.35561 19.832 9.31059 19.6057C9.26557 19.3794 9.15446 19.1715 8.9913 19.0084C8.82814 18.8452 8.62026 18.7341 8.39395 18.6891C8.16763 18.644 7.93306 18.6672 7.71988 18.7555C7.5067 18.8438 7.32449 18.9933 7.19629 19.1851C7.0681 19.377 6.99967 19.6026 6.99967 19.8333C6.99967 20.1427 7.12259 20.4395 7.34138 20.6583C7.56018 20.8771 7.85692 21 8.16634 21Z" fill="#6552FE"/>
</svg>
